<?xml version="1.0" encoding="UTF-8" standalone="no"?>
<svg width="100px" height="100px" viewBox="0 0 100 100" version="1.1" xmlns="http://www.w3.org/2000/svg" xmlns:xlink="http://www.w3.org/1999/xlink" xmlns:sketch="http://www.bohemiancoding.com/sketch/ns">
    <!-- Generator: Sketch 3.5 (25232) - http://www.bohemiancoding.com/sketch -->
    <title>aw sym</title>
    <desc>Created with Sketch.</desc>
    <defs></defs>
    <g id="Page-1" stroke="none" stroke-width="1" fill="none" fill-rule="evenodd" sketch:type="MSPage">
        <g id="aw-sym" sketch:type="MSLayerGroup">
            <rect id="Rectangle-107" stroke="#4A4A4A" stroke-width="4" fill="#FFFFFF" sketch:type="MSShapeGroup" x="0" y="0" width="100" height="100"></rect>
            <g id="aw" transform="translate(16.000000, 34.000000)" fill="#4A4A4A" sketch:type="MSShapeGroup">
                <path d="M2.688,11.952 C2.80000056,10.085324 3.26666256,8.53600616 4.088,7.304 C4.90933744,6.07199384 5.95466032,5.0826704 7.224,4.336 C8.49333968,3.5893296 9.9213254,3.05733492 11.508,2.74 C13.0946746,2.42266508 14.6906586,2.264 16.296,2.264 C17.7520073,2.264 19.2266592,2.36666564 20.72,2.572 C22.2133408,2.77733436 23.5759938,3.17866368 24.808,3.776 C26.0400062,4.37333632 27.0479961,5.20399468 27.832,6.268 C28.6160039,7.33200532 29.008,8.74132456 29.008,10.496 L29.008,25.56 C29.008,26.8666732 29.0826659,28.1173274 29.232,29.312 C29.3813341,30.5066726 29.6426648,31.4026637 30.016,32 L21.952,32 C21.8026659,31.5519978 21.6813338,31.094669 21.588,30.628 C21.4946662,30.161331 21.4293335,29.6853358 21.392,29.2 C20.1226603,30.5066732 18.6293419,31.4213307 16.912,31.944 C15.1946581,32.4666693 13.440009,32.728 11.648,32.728 C10.2666598,32.728 8.97867264,32.5600017 7.784,32.224 C6.58932736,31.8879983 5.54400448,31.3653369 4.648,30.656 C3.75199552,29.9466631 3.05200252,29.0506721 2.548,27.968 C2.04399748,26.8853279 1.792,25.5973408 1.792,24.104 C1.792,22.4613251 2.08133044,21.1080053 2.66,20.044 C3.23866956,18.9799947 3.98532876,18.1306698 4.9,17.496 C5.81467124,16.8613302 6.85999412,16.3853349 8.036,16.068 C9.21200588,15.7506651 10.3973274,15.4986676 11.592,15.312 C12.7866726,15.1253324 13.9626609,14.9760006 15.12,14.864 C16.2773391,14.7519994 17.3039955,14.5840011 18.2,14.36 C19.0960045,14.1359989 19.8053307,13.8093355 20.328,13.38 C20.8506693,12.9506645 21.0933335,12.3253374 21.056,11.504 C21.056,10.645329 20.9160014,9.96400252 20.636,9.46 C20.3559986,8.95599748 19.982669,8.5640014 19.516,8.284 C19.049331,8.0039986 18.5080031,7.8173338 17.892,7.724 C17.2759969,7.6306662 16.6133369,7.584 15.904,7.584 C14.3359922,7.584 13.1040045,7.91999664 12.208,8.592 C11.3119955,9.26400336 10.7893341,10.3839922 10.64,11.952 L2.688,11.952 L2.688,11.952 Z M21.056,17.832 C20.7199983,18.1306682 20.3000025,18.3639992 19.796,18.532 C19.2919975,18.7000008 18.7506696,18.8399994 18.172,18.952 C17.5933304,19.0640006 16.9866698,19.157333 16.352,19.232 C15.7173302,19.306667 15.0826698,19.3999994 14.448,19.512 C13.8506637,19.6240006 13.2626696,19.7733324 12.684,19.96 C12.1053304,20.1466676 11.6013355,20.3986651 11.172,20.716 C10.7426645,21.0333349 10.3973346,21.4346642 10.136,21.92 C9.87466536,22.4053358 9.744,23.0213296 9.744,23.768 C9.744,24.4773369 9.87466536,25.0746642 10.136,25.56 C10.3973346,26.0453358 10.7519978,26.4279986 11.2,26.708 C11.6480022,26.9880014 12.1706637,27.1839994 12.768,27.296 C13.3653363,27.4080006 13.9813302,27.464 14.616,27.464 C16.1840078,27.464 17.397329,27.2026693 18.256,26.68 C19.114671,26.1573307 19.7493313,25.5320036 20.16,24.804 C20.5706687,24.0759964 20.8226662,23.3386704 20.916,22.592 C21.0093338,21.8453296 21.056,21.2480022 21.056,20.8 L21.056,17.832 L21.056,17.832 Z" id="a"></path>
                <path d="M61.0160122,2.656 L68.1280122,2.656 L55.8640122,32 L49.7040122,32 L44.6640122,19.12 L39.6800122,32 L33.5200122,32 L21.3120122,2.656 L28.3680122,2.656 L37.1040122,24.944 L40.6880122,15.424 L35.5360122,2.712 L41.5840122,2.712 L44.6640122,11.728 L47.8000122,2.712 L53.8480122,2.712 L48.7520122,15.424 L52.2800122,24.944 L61.0160122,2.656 Z" id="w"></path>
            </g>
        </g>
    </g>
</svg>