<?xml version="1.0" encoding="UTF-8"?>
<svg width="40px" height="40px" viewBox="0 0 40 40" version="1.1" xmlns="http://www.w3.org/2000/svg" xmlns:xlink="http://www.w3.org/1999/xlink">
    <!-- Generator: Sketch 39.1 (31720) - http://www.bohemiancoding.com/sketch -->
    <title>insta</title>
    <desc>Created with Sketch.</desc>
    <defs></defs>
    <g id="Page-1" stroke="none" stroke-width="1" fill="none" fill-rule="evenodd">
        <g id="Desktop(full)" transform="translate(-898.000000, -922.000000)" fill="#000000">
            <g id="social" transform="translate(799.000000, 922.000000)">
                <g id="insta" transform="translate(99.000000, 0.000000)">
                    <path d="M20,3.60880952 C25.3385714,3.60880952 25.970873,3.62920635 28.0793651,3.72539683 C30.0287302,3.81436508 31.0873016,4.14 31.7919048,4.41380952 C32.6603247,4.73432698 33.4458716,5.24539622 34.0907937,5.90944444 C34.7548419,6.55436653 35.2659111,7.33991344 35.5864286,8.20833333 C35.8602381,8.91285714 36.1859524,9.97150794 36.2748413,11.920873 C36.3710317,14.0292063 36.3914286,14.6615079 36.3914286,20.0002381 C36.3914286,25.3389683 36.3710317,25.9711111 36.2748413,28.0796032 C36.185873,30.0289683 35.8601587,31.0875397 35.5864286,31.7921429 C34.9138,33.5358269 33.5355888,34.9140381 31.7919048,35.5866667 C31.087381,35.8604762 30.0287302,36.1861905 28.0793651,36.2750794 C25.9714286,36.3712698 25.339127,36.3916667 20,36.3916667 C14.660873,36.3916667 14.0288095,36.3712698 11.9206349,36.2750794 C9.97126984,36.1861111 8.91269841,35.8603968 8.20809524,35.5866667 C7.33967413,35.2661516 6.55412672,34.7550821 5.90920635,34.0910317 C5.24516021,33.4461079 4.73409131,32.6605615 4.41357143,31.7921429 C4.1397619,31.087619 3.81404762,30.0289683 3.72515873,28.0796032 C3.62896825,25.9713492 3.60857143,25.3389683 3.60857143,20.0002381 C3.60857143,14.6615079 3.62896825,14.0293651 3.72515873,11.920873 C3.81412698,9.97150794 4.1397619,8.91293651 4.41357143,8.20833333 C4.73412465,7.33987016 5.24524956,6.55429393 5.90936508,5.90936508 C6.55428889,5.24531894 7.33983529,4.73425004 8.20825397,4.41373016 C8.91277778,4.13992063 9.97142857,3.81420635 11.9207937,3.72531746 C14.029127,3.62912698 14.6614286,3.60873016 20.0001587,3.60873016 L20,3.60880952 Z M20.0001587,0.00626984127 C14.5701587,0.00626984127 13.8890476,0.0292857143 11.7568254,0.126587302 C9.62865079,0.223730159 8.17531746,0.561666667 6.90357143,1.05595238 C5.56949196,1.5579866 4.36097787,2.34498333 3.36230159,3.36206349 C2.34499221,4.36067716 1.55777574,5.56919597 1.05555556,6.90333333 C0.561666667,8.17515873 0.223730159,9.62849206 0.126984127,11.7566667 C0.0292857143,13.8888889 0.00626984127,14.57 0.00626984127,20 C0.00626984127,25.43 0.0292857143,26.1111111 0.126984127,28.2433333 C0.224126984,30.3715079 0.562063492,31.8248413 1.05634921,33.0965873 C1.55838572,34.4306656 2.34538214,35.6391792 3.36246032,36.6378571 C4.36113336,37.6549413 5.56964837,38.4419386 6.90373016,38.9439683 C8.17555556,39.438254 9.62888889,39.7761905 11.7569841,39.8733333 C13.8895238,39.9706349 14.5703968,39.9936508 20.0003175,39.9936508 C25.4302381,39.9936508 26.1114286,39.9706349 28.2436508,39.8733333 C30.3718254,39.7761905 31.8251587,39.438254 33.0969048,38.9439683 C35.7825193,37.9052753 37.9055927,35.7822018 38.9442857,33.0965873 C39.4385714,31.8247619 39.7765079,30.3714286 39.8736508,28.2433333 C39.9709524,26.1107937 39.9939683,25.4299206 39.9939683,20 C39.9939683,14.5700794 39.9709524,13.8888889 39.8736508,11.7566667 C39.7765079,9.62849206 39.4385714,8.17515873 38.9442857,6.9034127 C38.4422561,5.56933091 37.6552587,4.3608159 36.6381746,3.36214286 C35.6394779,2.34485992 34.4308759,1.55769631 33.0966667,1.05555556 C31.8248413,0.561666667 30.3715079,0.223730159 28.2433333,0.126984127 C26.1111111,0.0292857143 25.43,0.00626984127 20,0.00626984127 L20,0.00626984127 L20.0001587,0.00626984127 Z" id="Shape"></path>
                    <path d="M20,9.73293651 C14.3296574,9.73293651 9.73293651,14.3296574 9.73293651,20 C9.73293651,25.6703426 14.3296574,30.2670635 20,30.2670635 C25.6703426,30.2670635 30.2670635,25.6703426 30.2670635,20 C30.2670635,14.3296574 25.6703426,9.73293651 20,9.73293651 L20,9.73293651 Z M20,26.6645238 C16.3192955,26.66448 13.3355263,23.6806516 13.3355556,19.9999471 C13.3355848,16.3192426 16.3194013,13.3354616 20.0001058,13.3354762 C23.6808104,13.3354908 26.6646032,16.3192955 26.6646032,20 C26.6645593,23.6807277 23.6807277,26.6645238 20,26.6645238 L20,26.6645238 Z" id="Shape"></path>
                    <ellipse id="Oval" cx="30.6726984" cy="9.32730159" rx="2.39920635" ry="2.39920635"></ellipse>
                </g>
            </g>
        </g>
    </g>
</svg>