<?xml version="1.0" encoding="UTF-8"?>
<svg width="360px" height="339px" viewBox="0 0 360 339" version="1.1" xmlns="http://www.w3.org/2000/svg" xmlns:xlink="http://www.w3.org/1999/xlink">
    <!-- Generator: Sketch 39.1 (31720) - http://www.bohemiancoding.com/sketch -->
    <title>snap-ghost</title>
    <desc>Created with Sketch.</desc>
    <defs>
        <polygon id="path-1" points="179.999905 339 0 339 0 0.638 179.999905 0.638 359.999809 0.638 359.999809 339"></polygon>
    </defs>
    <g id="Page-1" stroke="none" stroke-width="1" fill="none" fill-rule="evenodd">
        <g id="snap-ghost">
            <mask id="mask-2" fill="white">
                <use xlink:href="#path-1"></use>
            </mask>
            <g id="Clip-2"></g>
            <path d="M182.227,335.268 C181.318,335.268 180.426,335.242 179.533,335.199 L179.531,335.199 C178.962,335.243 178.367,335.268 177.772,335.268 C156.887,335.268 143.482,325.792 130.52,316.627 C121.569,310.303 113.123,304.332 103.171,302.675 C98.315,301.871 93.482,301.463 88.811,301.463 C80.396,301.463 73.757,302.762 68.91,303.71 C65.965,304.286 63.424,304.781 61.493,304.781 C59.476,304.781 57.29,304.345 56.34,301.099 C55.514,298.287 54.917,295.563 54.343,292.928 C52.862,286.147 51.811,281.976 48.969,281.54 C15.845,276.424 6.364,269.447 4.25,264.497 C3.951,263.789 3.781,263.08 3.74,262.378 C3.633,260.476 4.98,258.797 6.859,258.49 C57.779,250.105 80.614,198.061 81.562,195.851 C81.588,195.79 81.615,195.731 81.643,195.67 C84.76,189.354 85.37,183.872 83.463,179.378 C79.969,171.143 68.572,167.523 61.028,165.13 C59.182,164.546 57.432,163.994 56.052,163.449 C40.998,157.497 39.745,151.389 40.337,148.275 C41.346,142.97 48.435,139.273 54.169,139.273 C55.741,139.273 57.125,139.552 58.289,140.095 C65.061,143.268 71.165,144.875 76.431,144.875 C83.707,144.875 86.883,141.817 87.271,141.416 C87.086,137.97 86.857,134.371 86.623,130.657 C85.106,106.583 83.227,76.669 90.843,59.594 C113.67,8.411 162.078,4.435 176.37,4.435 C176.736,4.435 182.636,4.372 182.636,4.372 L183.482,4.369 C197.807,4.369 246.32,8.352 269.16,59.563 C276.778,76.647 274.894,106.586 273.375,130.642 L273.312,131.688 C273.102,135.038 272.898,138.294 272.728,141.411 C273.092,141.782 276.013,144.595 282.61,144.847 L282.617,144.847 C287.63,144.655 293.392,143.057 299.715,140.095 C301.568,139.23 303.626,139.048 305.027,139.048 C307.167,139.048 309.336,139.462 311.137,140.213 L311.246,140.258 C316.361,142.07 319.711,145.655 319.783,149.401 C319.849,152.928 317.157,158.231 303.948,163.449 C302.579,163.987 300.829,164.543 298.976,165.13 C291.424,167.527 280.03,171.143 276.538,179.377 C274.63,183.868 275.241,189.347 278.356,195.666 C278.384,195.727 278.416,195.786 278.44,195.851 C279.387,198.059 302.202,250.088 353.144,258.483 C355.025,258.793 356.368,260.47 356.265,262.374 C356.222,263.087 356.049,263.806 355.744,264.504 C353.643,269.419 344.17,276.387 311.034,281.507 C308.327,281.923 307.278,285.45 305.662,292.847 C305.075,295.539 304.48,298.183 303.661,300.964 C302.956,303.377 301.452,304.506 298.922,304.506 L298.51,304.506 C296.754,304.506 294.258,304.192 291.095,303.571 C285.485,302.474 279.195,301.463 271.193,301.463 C266.52,301.463 261.684,301.871 256.825,302.675 C246.884,304.332 238.443,310.291 229.509,316.607 C216.521,325.792 203.118,335.268 182.227,335.268" id="Fill-1" fill="#000000" mask="url(#mask-2)"></path>
            <path d="M183.482,0.638 L183.467,0.638 C183.157,0.638 182.865,0.638 182.588,0.644 C182.588,0.644 176.817,0.701 176.359,0.701 C161.508,0.701 111.178,4.838 87.432,58.076 C79.446,75.986 81.36,106.405 82.896,130.849 C83.077,133.731 83.269,136.723 83.434,139.615 C82.205,140.295 79.962,141.141 76.431,141.141 C71.717,141.141 66.146,139.654 59.875,136.714 C58.21,135.934 56.29,135.544 54.169,135.544 C46.824,135.544 38.038,140.376 36.671,147.579 C35.684,152.765 38.005,160.332 54.679,166.917 C56.183,167.512 57.992,168.085 59.903,168.689 C66.791,170.877 77.203,174.181 80.028,180.836 C81.492,184.284 80.908,188.722 78.297,194.022 C78.24,194.142 78.182,194.26 78.13,194.384 C77.214,196.516 55.178,246.751 6.253,254.805 C2.491,255.426 -0.197,258.782 0.011,262.588 C0.076,263.721 0.344,264.848 0.808,265.942 C4.479,274.526 19.971,280.816 48.173,285.193 C49.115,286.468 50.095,290.971 50.695,293.715 C51.285,296.422 51.893,299.214 52.759,302.159 C53.609,305.055 55.817,308.516 61.493,308.516 C63.786,308.516 66.492,307.987 69.623,307.372 C74.322,306.454 80.756,305.197 88.811,305.197 C93.277,305.197 97.907,305.585 102.569,306.358 C111.669,307.875 119.402,313.34 128.354,319.669 C141.178,328.736 155.699,339 177.772,339 C178.378,339 178.988,338.982 179.591,338.937 C180.307,338.968 181.237,339 182.227,339 C204.306,339 218.826,328.734 231.64,319.672 C240.612,313.335 248.34,307.871 257.44,306.358 C262.094,305.585 266.725,305.197 271.193,305.197 C278.877,305.197 284.957,306.175 290.38,307.234 C293.778,307.899 296.512,308.237 298.51,308.237 L298.719,308.24 L298.922,308.24 C303.114,308.24 306.073,306.025 307.246,302.004 C308.096,299.12 308.706,296.4 309.308,293.647 C309.905,290.91 310.882,286.428 311.821,285.16 C340.031,280.781 355.519,274.501 359.183,265.953 C359.654,264.859 359.924,263.723 359.988,262.581 C360.201,258.773 357.51,255.421 353.75,254.802 C304.803,246.734 282.785,196.511 281.871,194.38 C281.819,194.258 281.764,194.136 281.703,194.018 C279.09,188.719 278.512,184.284 279.973,180.836 C282.797,174.181 293.205,170.877 300.093,168.693 C302.02,168.081 303.831,167.505 305.321,166.917 C317.523,162.098 323.645,156.18 323.516,149.326 C323.41,143.944 319.217,139.142 312.555,136.762 L312.534,136.754 C310.293,135.825 307.632,135.317 305.027,135.317 C303.246,135.317 300.603,135.559 298.135,136.714 C292.331,139.434 287.115,140.912 282.617,141.113 C279.635,140.975 277.684,140.223 276.571,139.609 C276.712,137.13 276.871,134.576 277.039,131.908 L277.102,130.871 C278.645,106.411 280.561,75.965 272.567,58.042 C248.813,4.781 198.375,0.638 183.482,0.638 L183.482,0.638 Z M183.482,8.101 C197.042,8.103 243.744,11.741 265.753,61.083 C272.998,77.327 271.145,106.76 269.654,130.407 C269.417,134.156 269.188,137.791 269.001,141.267 L268.92,142.758 L269.919,143.868 C270.319,144.317 274.088,148.253 282.464,148.578 L282.604,148.582 L282.741,148.578 C288.279,148.369 294.521,146.653 301.3,143.475 C302.294,143.007 303.623,142.78 305.027,142.78 C306.631,142.78 308.331,143.081 309.735,143.672 L309.945,143.758 C313.497,145.001 316.01,147.351 316.052,149.473 C316.073,150.679 315.171,155.001 302.577,159.975 C301.346,160.463 299.724,160.977 297.847,161.57 C289.652,164.175 277.27,168.1 273.102,177.915 C270.753,183.454 271.392,189.981 275.008,197.318 C276.498,200.79 299.886,253.492 352.536,262.167 C352.521,262.411 352.462,262.688 352.32,263.009 C351.426,265.112 345.753,272.368 310.465,277.815 C304.94,278.667 303.586,284.854 302.015,292.052 C301.455,294.626 300.873,297.222 300.081,299.913 C299.842,300.726 299.796,300.774 298.922,300.774 L298.51,300.774 C296.945,300.774 294.565,300.448 291.81,299.909 C286.808,298.931 279.949,297.732 271.193,297.732 C266.305,297.732 261.267,298.157 256.217,298.994 C245.418,300.792 236.632,307.006 227.327,313.579 C214.838,322.411 201.928,331.537 182.227,331.537 C181.372,331.537 180.529,331.509 179.687,331.469 L179.465,331.457 L179.241,331.478 C178.757,331.518 178.271,331.537 177.772,331.537 C158.075,331.537 145.16,322.411 132.672,313.582 C123.371,307.006 114.583,300.792 103.786,298.994 C98.735,298.157 93.698,297.732 88.811,297.732 C80.056,297.732 73.197,299.066 68.191,300.046 C65.438,300.587 63.055,301.049 61.493,301.049 C60.217,301.049 60.191,300.975 59.921,300.053 C59.13,297.361 58.55,294.695 57.988,292.124 C56.416,284.925 55.056,278.702 49.538,277.851 C14.246,272.401 8.578,265.127 7.681,263.03 C7.539,262.704 7.48,262.42 7.467,262.172 C60.113,253.499 83.502,200.803 84.991,197.322 C88.607,189.981 89.25,183.458 86.9,177.922 C82.735,168.104 70.352,164.175 62.155,161.57 C60.278,160.978 58.655,160.463 57.425,159.975 C46.783,155.773 43.515,151.54 44.004,148.974 C44.568,146.015 49.695,143.007 54.169,143.007 C55.176,143.007 56.055,143.168 56.708,143.475 C63.977,146.877 70.616,148.608 76.431,148.608 C85.582,148.608 89.657,144.349 90.089,143.866 L91.081,142.758 L91,141.272 C90.814,137.802 90.586,134.169 90.348,130.422 C88.859,106.775 87.007,77.362 94.252,61.115 C116.176,11.954 162.649,8.166 176.37,8.166 C176.708,8.166 182.671,8.107 182.671,8.107 C182.928,8.103 183.195,8.101 183.482,8.101 L183.482,8.101 Z" id="Fill-3" fill="#0B0C09" mask="url(#mask-2)"></path>
        </g>
    </g>
</svg>