<?xml version="1.0" encoding="UTF-8" standalone="no"?>
<svg width="32px" height="30px" viewBox="0 0 32 30" version="1.1" xmlns="http://www.w3.org/2000/svg" xmlns:xlink="http://www.w3.org/1999/xlink" xmlns:sketch="http://www.bohemiancoding.com/sketch/ns">
    <!-- Generator: Sketch 3.5 (25232) - http://www.bohemiancoding.com/sketch -->
    <title>mail1</title>
    <desc>Created with Sketch.</desc>
    <defs></defs>
    <g id="Page-1" stroke="none" stroke-width="1" fill="none" fill-rule="evenodd" sketch:type="MSPage">
        <g id="mail1" sketch:type="MSLayerGroup" transform="translate(-1.000000, 0.000000)" fill="#FC9F28">
            <g id="Capa_1" sketch:type="MSShapeGroup">
                <g id="Group">
                    <path d="M2.3,11.5 C1.6,11.8 1.1,12.4 1,13.1 C0.9,13.8 1.2,14.5 1.8,15 L8.3,19.7 L31.4,1.6 L11,21.7 L19.9,28.2 C20.5,28.6 21.2,28.7 21.9,28.5 C22.6,28.3 23.1,27.8 23.3,27.1 L32.8,1.1 C32.9,0.8 32.8,0.5 32.6,0.3 C32.4,0.1 32.1,-1.27606259e-14 31.8,0.1 L2.3,11.5 L2.3,11.5 Z" id="Shape"></path>
                    <path d="M6.8,21.3 L6.9,21.6 L8.2,28.5 C8.3,29 8.6,29.4 9.1,29.6 C9.6,29.8 10.1,29.8 10.6,29.5 C12.4,28.4 14.6,26.9 14.6,26.8 L6.8,21.3 L6.8,21.3 Z" id="Shape"></path>
                </g>
            </g>
        </g>
    </g>
</svg>