<?xml version="1.0" encoding="UTF-8" standalone="no"?>
<svg width="45px" height="43px" viewBox="0 0 45 43" version="1.1" xmlns="http://www.w3.org/2000/svg" xmlns:xlink="http://www.w3.org/1999/xlink">
    <!-- Generator: Sketch 39.1 (31720) - http://www.bohemiancoding.com/sketch -->
    <title>logo</title>
    <desc>Created with Sketch.</desc>
    <defs>
        <path d="M37.460733,40.7620411 L37.460733,40.980663 L45,40.980663 L45,22.9458191 L37.460733,40.7620411 Z M45,9.87952073 L45,1.90055249 L37.460733,1.90055249 L37.460733,7.44870173 C33.5508947,2.88678484 27.7707732,0 21.3219895,0 C14.1752716,0 7.84978304,3.54545582 3.98103669,8.98720029 L13.9005236,32.4281768 L24.6793194,6.95654679 L35.4581152,32.4281768 L45,9.87952073 Z M0.993663408,14.9939654 C0.348211612,17.0463708 0,19.2321813 0,21.5 C0,29.9689073 4.85602985,37.2941591 11.9135821,40.7990862 L0.993663408,14.9939654 Z M15.321364,42.1368532 C17.2247575,42.6986632 19.2384744,43 21.3219895,43 C25.6056845,43 29.5943344,41.7262158 32.9357391,39.533788 L24.6793194,20.0228451 L15.321364,42.1368532 Z" id="path-1"></path>
    </defs>
    <g id="Page-1" stroke="none" stroke-width="1" fill="none" fill-rule="evenodd">
        <g id="Desktop-HD" transform="translate(-698.000000, -33.000000)">
            <g id="head" transform="translate(0.000000, -38.000000)">
                <g id="logo" transform="translate(698.000000, 71.000000)">
                    <mask id="mask-2" fill="white">
                        <use xlink:href="#path-1"></use>
                    </mask>
                    <use id="Mask" fill="#FFFFFF" xlink:href="#path-1"></use>
                    <ellipse id="Oval-47" fill="#C9C9C9" mask="url(#mask-2)" cx="21.3808901" cy="21.5593923" rx="15.8442408" ry="15.9765193"></ellipse>
                </g>
            </g>
        </g>
    </g>
</svg>